#!OML:ASF H:\ManfredETheater\Project 1\Capture day 1\Session 1\subject.ASF
:FULLY-SPECIFIED
:DEGREES
79
root 1.6101 15.8407 10.3813 -153.536 -9.35382 171.619
lowerback 16.4666 0.44885 -5.19635
upperback -0.0604371 -0.63597 -0.985424
thorax -9.3013 -0.146798 2.04484
lowerneck -20.6272 -5.88744 -6.01747
upperneck -0.73899 -7.49952 7.58229
head 3.5022 -3.63954 2.62465
rclavicle 1.78906e-014 1.47101e-014
rhumerus -53.4178 -0.414854 -87.5304
rradius 71.3063
rwrist -19.1518
rhand -32.9074 5.38863
rfingers 7.12502
rthumb -6.12482 -24.5028
lclavicle 1.78906e-014 1.47101e-014
lhumerus -35.2284 -17.2058 100.348
lradius 110.199
lwrist 13.3976
lhand -21.1812 -7.74054
lfingers 7.12502
lthumb 5.19935 22.1757
rfemur -38.1844 -13.4213 17.8684
rtibia 99.7891
rfoot -1.70729 -1.14318
rtoes -17.2933
lfemur -45.8401 -3.4057 -30.7817
ltibia 63.4033
lfoot -36.5721 -5.46487
ltoes 11.6057
80
root 1.59106 15.8176 9.83582 -153.247 -9.17181 171.323
lowerback 16.1868 0.280544 -5.42366
upperback -0.292374 -0.882477 -1.00166
thorax -9.37777 -0.243444 2.21168
lowerneck -21.0461 -5.77443 -5.91907
upperneck -0.392136 -7.3509 7.3614
head 3.64625 -3.56242 2.54265
rclavicle -9.14409e-015 -3.18055e-014
rhumerus -56.4369 -0.289496 -87.1979
rradius 72.4936
rwrist -18.9324
rhand -32.7784 6.25528
rfingers 7.12502
rthumb -6.00028 -23.6398
lclavicle -9.14409e-015 -3.18055e-014
lhumerus -33.2162 -17.7848 100.627
lradius 112.442
lwrist 13.4239
lhand -20.9149 -7.87367
lfingers 7.12502
lthumb 5.45648 22.0361
rfemur -42.5369 -13.8771 17.6263
rtibia 101.842
rfoot -3.12486 -1.1469
rtoes -18.0599
lfemur -43.3902 -3.47218 -30.7807
ltibia 62.545
lfoot -37.5556 -5.26683
ltoes 10.0445
81
root 1.57317 15.8038 9.28178 -152.996 -9.00472 171.04
lowerback 15.8866 0.0597167 -5.6715
upperback -0.5176 -1.19634 -0.971657
thorax -9.42611 -0.370616 2.45442
lowerneck -21.4586 -5.55849 -5.71411
upperneck -0.0370151 -7.08524 7.0284
head 3.77694 -3.43402 2.42179
rclavicle 1.03368e-014 -4.37326e-015
rhumerus -59.437 0.049013 -86.9069
rradius 74.0637
rwrist -18.4955
rhand -32.4458 7.13773
rfingers 7.12502
rthumb -5.67917 -22.7662
lclavicle 1.03368e-014 -4.37326e-015
lhumerus -31.4165 -18.2439 100.827
lradius 115.015
lwrist 13.6366
lhand -20.689 -7.99287
lfingers 7.12502
lthumb 5.67461 21.9112
rfemur -46.796 -14.2101 17.4751
rtibia 103.274
rfoot -4.48048 -1.29543
rtoes -18.8467
lfemur -40.8042 -3.56095 -30.7444
ltibia 61.4585
lfoot -38.1581 -5.16771
ltoes 8.07972
82
root 1.55636 15.8014 8.71763 -152.793 -8.87232 170.788
lowerback 15.5725 -0.219668 -5.90828
upperback -0.733683 -1.57919 -0.892669
thorax -9.44548 -0.530598 2.75747
lowerneck -21.8698 -5.2477 -5.41966
upperneck 0.345734 -6.71147 6.62146
head 3.90576 -3.25622 2.27544
rclavicle -4.37326e-015 -1.11319e-014
rhumerus -62.3595 0.566478 -86.6549
rradius 75.8806
rwrist -17.9052
rhand -31.9904 7.99454
rfingers 7.12502
rthumb -5.23947 -21.9207
lclavicle -4.37326e-015 -1.11319e-014
lhumerus -29.8214 -18.6361 100.903
lradius 117.826
lwrist 14.0764
lhand -20.5121 -8.10103
lfingers 7.12502
lthumb 5.84539 21.7983
rfemur -50.8818 -14.4064 17.4179
rtibia 104.045
rfoot -5.75314 -1.56563
rtoes -19.6128
lfemur -38.0815 -3.69972 -30.6411
ltibia 60.1354
lfoot -38.3224 -5.18149
ltoes 5.68188
